# xmcd
#
# Track frame offsets: 
#        150
#        9939
#        22809
#        37183
#        55328
#        70876
#        83733
#        98205
#        107589
#        118744
#        133756
#        141605
#        153631
#        165257
#        180711
#        195201
#
# Disc length: 2744 seconds
#
# Revision: 1
# Processed by: cddbd v1.5.2PL0 Copyright (c) Steve Scherf et al.
# Submitted via: ExactAudioCopy v0.99pb4
#
DISCID=d10ab610
DTITLE=The Moody Blues - The Magnificent Moodies
DYEAR=1966
DGENRE=R&B
TTITLE0=I'll Go Crazy
TTITLE1=Something You Got
TTITLE2=Go Now
TTITLE3=Can't Nobody Love You
TTITLE4=I Don't Mind
TTITLE5=I've Got A Dream
TTITLE6=Let Me Go
TTITLE7=Stop!
TTITLE8=Thank You Baby
TTITLE9=It Ain't Necessarily So
TTITLE10=True Story
TTITLE11=Come Back (I Don't Want To Go on Without You)
TTITLE12=People Gotta Go
TTITLE13=From The Bottom Of My Heart (I Love You)
TTITLE14=It's Easy Child
TTITLE15=And My Baby's Gone
EXTD=
EXTT0=
EXTT1=
EXTT2=
EXTT3=
EXTT4=
EXTT5=
EXTT6=
EXTT7=
EXTT8=
EXTT9=
EXTT10=
EXTT11=
EXTT12=
EXTT13=
EXTT14=
EXTT15=
PLAYORDER=
